<svg width="800" height="600" xmlns="http://www.w3.org/2000/svg">
  <defs>
    <linearGradient id="grad1" x1="0%" y1="0%" x2="100%" y2="100%">
      <stop offset="0%" style="stop-color:#2563eb;stop-opacity:1" />
      <stop offset="100%" style="stop-color:#1e40af;stop-opacity:1" />
    </linearGradient>
  </defs>
  <rect width="800" height="600" fill="url(#grad1)"/>
  <g fill="rgba(255,255,255,0.1)">
    <rect x="50" y="50" width="150" height="150" rx="10"/>
    <rect x="250" y="50" width="150" height="150" rx="10"/>
    <rect x="450" y="50" width="150" height="150" rx="10"/>
    <rect x="650" y="50" width="100" height="150" rx="10"/>
    
    <rect x="50" y="250" width="100" height="100" rx="10"/>
    <rect x="200" y="250" width="150" height="100" rx="10"/>
    <rect x="400" y="250" width="200" height="100" rx="10"/>
    <rect x="650" y="250" width="100" height="100" rx="10"/>
    
    <rect x="50" y="400" width="200" height="80" rx="10"/>
    <rect x="300" y="400" width="250" height="80" rx="10"/>
    <rect x="600" y="400" width="150" height="80" rx="10"/>
  </g>
  <text x="400" y="550" font-size="32" font-weight="bold" fill="rgba(255,255,255,0.8)" text-anchor="middle">Infrastructure Upgrade</text>
</svg>
